<?xml version="1.0" standalone="no"?>
<!DOCTYPE svg PUBLIC "-//W3C//DTD SVG 20010904//EN"
 "http://www.w3.org/TR/2001/REC-SVG-20010904/DTD/svg10.dtd">
<svg version="1.0" xmlns="http://www.w3.org/2000/svg"
 width="302.000000pt" height="77.000000pt" viewBox="0 0 302.000000 77.000000"
 preserveAspectRatio="xMidYMid meet">

<g transform="translate(0.000000,77.000000) scale(0.100000,-0.100000)"
fill="#000000" stroke="none">
<path d="M40 385 l0 -325 75 0 75 0 0 130 0 130 105 0 105 0 0 -130 0 -130 75
0 75 0 0 325 0 325 -75 0 -75 0 0 -130 0 -130 -105 0 -105 0 0 130 0 130 -75
0 -75 0 0 -325z"/>
<path d="M1237 465 c-21 -7 -47 -21 -58 -31 -18 -16 -19 -16 -19 4 0 20 -5 22
-70 22 l-70 0 0 -200 0 -200 70 0 70 0 0 134 c0 141 4 157 49 171 28 9 70 -12
81 -40 6 -15 10 -80 10 -146 l0 -119 65 0 65 0 0 119 c0 66 4 131 10 146 11
28 53 49 81 40 45 -14 49 -30 49 -171 l0 -134 70 0 70 0 0 62 0 61 30 -41 c46
-64 98 -87 200 -87 115 0 179 34 222 119 l15 29 7 -35 c15 -80 107 -124 240
-116 92 6 133 28 164 88 20 40 22 59 22 182 l0 138 -70 0 -70 0 0 -125 c0
-120 -1 -127 -25 -150 -29 -30 -74 -32 -106 -6 -23 18 -24 27 -27 150 l-4 131
-64 0 -64 0 0 -55 c0 -30 -2 -55 -5 -55 -3 0 -22 19 -43 42 -20 22 -57 50 -82
61 -59 26 -162 26 -221 0 -43 -19 -108 -82 -110 -106 0 -7 -8 8 -17 32 -39
100 -156 126 -249 55 l-35 -26 -26 25 c-15 14 -40 29 -57 32 -16 4 -37 8 -45
10 -8 2 -32 -2 -53 -10z m753 -120 c33 -17 54 -70 44 -109 -13 -54 -92 -84
-146 -55 -26 14 -48 67 -41 102 7 34 56 77 89 77 14 0 38 -7 54 -15z"/>
<path d="M2857 470 c-16 -5 -44 -20 -63 -35 l-34 -26 0 25 c0 25 -2 26 -65 26
l-65 0 0 -200 0 -200 65 0 65 0 0 105 c0 163 31 210 124 186 22 -5 41 -9 41
-8 0 1 12 26 25 55 25 56 21 71 -22 72 -9 0 -22 2 -30 4 -7 2 -26 0 -41 -4z"/>
<path d="M572 306 c3 -139 5 -158 24 -183 41 -54 79 -68 189 -68 110 0 148 14
189 68 19 25 21 44 24 183 l3 154 -65 0 -66 0 0 -97 c-1 -159 -19 -203 -83
-203 -70 0 -87 37 -87 191 l0 109 -66 0 -65 0 3 -154z"/>
</g>
</svg>
